<svg width="633" height="163" viewBox="0 0 633 163" fill="none" xmlns="http://www.w3.org/2000/svg">
<path d="M61.1348 111.115L310.769 111.742L560.402 112.369" stroke="url(#paint0_linear_15_23)" stroke-width="1.27364"/>
<path d="M221.614 160.159V0.28656" stroke="url(#paint1_linear_15_23)" stroke-width="1.27364"/>
<path d="M72.8551 136.21V124.272H75.0407V134.008H84.7764V136.21H72.8551ZM85.7748 136.21V126.59C85.7748 126.171 85.8796 125.79 86.0893 125.448C86.2991 125.095 86.575 124.813 86.9172 124.603C87.2704 124.394 87.6568 124.289 88.0762 124.289H95.378C95.7975 124.289 96.1838 124.394 96.537 124.603C96.8902 124.813 97.1717 125.095 97.3814 125.448C97.5912 125.79 97.696 126.171 97.696 126.59V136.21H95.4939V132.203H87.9603V136.21H85.7748ZM87.9603 130.018H95.4939V126.69C95.4939 126.634 95.4718 126.59 95.4277 126.557C95.3835 126.513 95.3338 126.491 95.2787 126.491H88.159C88.1038 126.491 88.0541 126.513 88.01 126.557C87.9769 126.59 87.9603 126.634 87.9603 126.69V130.018ZM99.6322 136.21V124.289H108.772C109.191 124.289 109.572 124.394 109.914 124.603C110.268 124.813 110.549 125.095 110.759 125.448C110.968 125.79 111.073 126.171 111.073 126.59V128.925C111.073 129.068 111.062 129.206 111.04 129.339C111.018 129.471 110.979 129.598 110.924 129.72C111.112 129.974 111.261 130.238 111.371 130.514C111.493 130.79 111.553 131.066 111.553 131.342V133.909C111.553 134.328 111.449 134.714 111.239 135.068C111.029 135.41 110.748 135.686 110.394 135.896C110.041 136.105 109.655 136.21 109.235 136.21H99.6322ZM102.016 134.008H109.136C109.191 134.008 109.241 133.991 109.285 133.958C109.329 133.914 109.351 133.865 109.351 133.809V131.442C109.351 131.386 109.329 131.342 109.285 131.309C109.241 131.265 109.191 131.243 109.136 131.243H102.016C101.961 131.243 101.912 131.265 101.867 131.309C101.834 131.342 101.818 131.386 101.818 131.442V133.809C101.818 133.865 101.834 133.914 101.867 133.958C101.912 133.991 101.961 134.008 102.016 134.008ZM102.016 129.041H108.672C108.728 129.041 108.772 129.024 108.805 128.991C108.838 128.947 108.855 128.897 108.855 128.842V126.69C108.855 126.634 108.838 126.59 108.805 126.557C108.772 126.513 108.728 126.491 108.672 126.491H102.016C101.961 126.491 101.912 126.513 101.867 126.557C101.834 126.59 101.818 126.634 101.818 126.69V128.842C101.818 128.897 101.834 128.947 101.867 128.991C101.912 129.024 101.961 129.041 102.016 129.041ZM115.627 136.21C115.208 136.21 114.821 136.105 114.468 135.896C114.126 135.686 113.85 135.41 113.64 135.068C113.43 134.714 113.326 134.328 113.326 133.909V126.59C113.326 126.171 113.43 125.79 113.64 125.448C113.85 125.095 114.126 124.813 114.468 124.603C114.821 124.394 115.208 124.289 115.627 124.289H122.945C123.365 124.289 123.746 124.394 124.088 124.603C124.441 124.813 124.723 125.095 124.932 125.448C125.142 125.79 125.247 126.171 125.247 126.59V133.909C125.247 134.328 125.142 134.714 124.932 135.068C124.723 135.41 124.441 135.686 124.088 135.896C123.746 136.105 123.365 136.21 122.945 136.21H115.627ZM115.71 134.008H122.83C122.885 134.008 122.934 133.991 122.979 133.958C123.023 133.914 123.045 133.865 123.045 133.809V126.69C123.045 126.634 123.023 126.59 122.979 126.557C122.934 126.513 122.885 126.491 122.83 126.491H115.71C115.655 126.491 115.605 126.513 115.561 126.557C115.528 126.59 115.511 126.634 115.511 126.69V133.809C115.511 133.865 115.528 133.914 115.561 133.958C115.605 133.991 115.655 134.008 115.71 134.008ZM136.574 136.21L132.981 131.922H135.846L138.958 135.598V136.21H136.574ZM127.07 136.21V124.305H136.674C137.093 124.305 137.479 124.41 137.833 124.62C138.186 124.83 138.467 125.111 138.677 125.464C138.887 125.807 138.992 126.187 138.992 126.607V129.819C138.992 130.238 138.887 130.625 138.677 130.978C138.467 131.331 138.186 131.613 137.833 131.822C137.479 132.021 137.093 132.12 136.674 132.12L129.256 132.137V136.21H127.07ZM129.455 129.918H136.574C136.629 129.918 136.679 129.902 136.723 129.869C136.767 129.836 136.789 129.791 136.789 129.736V126.69C136.789 126.634 136.767 126.59 136.723 126.557C136.679 126.513 136.629 126.491 136.574 126.491H129.455C129.399 126.491 129.35 126.513 129.306 126.557C129.272 126.59 129.256 126.634 129.256 126.69V129.736C129.256 129.791 129.272 129.836 129.306 129.869C129.35 129.902 129.399 129.918 129.455 129.918ZM140.766 136.21V126.59C140.766 126.171 140.871 125.79 141.081 125.448C141.291 125.095 141.567 124.813 141.909 124.603C142.262 124.394 142.648 124.289 143.068 124.289H150.37C150.789 124.289 151.175 124.394 151.529 124.603C151.882 124.813 152.163 125.095 152.373 125.448C152.583 125.79 152.688 126.171 152.688 126.59V136.21H150.486V132.203H142.952V136.21H140.766ZM142.952 130.018H150.486V126.69C150.486 126.634 150.463 126.59 150.419 126.557C150.375 126.513 150.326 126.491 150.27 126.491H143.151C143.095 126.491 143.046 126.513 143.002 126.557C142.969 126.59 142.952 126.634 142.952 126.69V130.018ZM158.846 136.21V126.491H153.978V124.289H165.899V126.491H161.048V136.21H158.846ZM169.406 136.21C168.987 136.21 168.6 136.105 168.247 135.896C167.905 135.686 167.629 135.41 167.419 135.068C167.209 134.714 167.105 134.328 167.105 133.909V126.59C167.105 126.171 167.209 125.79 167.419 125.448C167.629 125.095 167.905 124.813 168.247 124.603C168.6 124.394 168.987 124.289 169.406 124.289H176.724C177.144 124.289 177.525 124.394 177.867 124.603C178.22 124.813 178.502 125.095 178.711 125.448C178.921 125.79 179.026 126.171 179.026 126.59V133.909C179.026 134.328 178.921 134.714 178.711 135.068C178.502 135.41 178.22 135.686 177.867 135.896C177.525 136.105 177.144 136.21 176.724 136.21H169.406ZM169.489 134.008H176.608C176.664 134.008 176.713 133.991 176.757 133.958C176.802 133.914 176.824 133.865 176.824 133.809V126.69C176.824 126.634 176.802 126.59 176.757 126.557C176.713 126.513 176.664 126.491 176.608 126.491H169.489C169.434 126.491 169.384 126.513 169.34 126.557C169.307 126.59 169.29 126.634 169.29 126.69V133.809C169.29 133.865 169.307 133.914 169.34 133.958C169.384 133.991 169.434 134.008 169.489 134.008ZM171.857 123.295L172.635 120.265H174.82L174.075 123.295H171.857ZM190.353 136.21L186.76 131.922H189.625L192.737 135.598V136.21H190.353ZM180.849 136.21V124.305H190.452C190.872 124.305 191.258 124.41 191.611 124.62C191.965 124.83 192.246 125.111 192.456 125.464C192.666 125.807 192.77 126.187 192.77 126.607V129.819C192.77 130.238 192.666 130.625 192.456 130.978C192.246 131.331 191.965 131.613 191.611 131.822C191.258 132.021 190.872 132.12 190.452 132.12L183.035 132.137V136.21H180.849ZM183.233 129.918H190.353C190.408 129.918 190.458 129.902 190.502 129.869C190.546 129.836 190.568 129.791 190.568 129.736V126.69C190.568 126.634 190.546 126.59 190.502 126.557C190.458 126.513 190.408 126.491 190.353 126.491H183.233C183.178 126.491 183.129 126.513 183.084 126.557C183.051 126.59 183.035 126.634 183.035 126.69V129.736C183.035 129.791 183.051 129.836 183.084 129.869C183.129 129.902 183.178 129.918 183.233 129.918ZM194.28 136.21V124.289H196.449V136.21H194.28ZM200.322 136.21C199.902 136.21 199.516 136.105 199.163 135.896C198.82 135.686 198.545 135.41 198.335 135.068C198.125 134.714 198.02 134.328 198.02 133.909V126.59C198.02 126.171 198.125 125.79 198.335 125.448C198.545 125.095 198.82 124.813 199.163 124.603C199.516 124.394 199.902 124.289 200.322 124.289H207.64C208.059 124.289 208.44 124.394 208.782 124.603C209.136 124.813 209.417 125.095 209.627 125.448C209.837 125.79 209.941 126.171 209.941 126.59V133.909C209.941 134.328 209.837 134.714 209.627 135.068C209.417 135.41 209.136 135.686 208.782 135.896C208.44 136.105 208.059 136.21 207.64 136.21H200.322ZM200.404 134.008H207.524C207.579 134.008 207.629 133.991 207.673 133.958C207.717 133.914 207.739 133.865 207.739 133.809V126.69C207.739 126.634 207.717 126.59 207.673 126.557C207.629 126.513 207.579 126.491 207.524 126.491H200.404C200.349 126.491 200.3 126.513 200.255 126.557C200.222 126.59 200.206 126.634 200.206 126.69V133.809C200.206 133.865 200.222 133.914 200.255 133.958C200.3 133.991 200.349 134.008 200.404 134.008ZM216.859 136.21V124.289H226.462C226.882 124.289 227.268 124.394 227.621 124.603C227.974 124.813 228.256 125.095 228.466 125.448C228.675 125.79 228.78 126.171 228.78 126.59V133.909C228.78 134.328 228.675 134.714 228.466 135.068C228.256 135.41 227.974 135.686 227.621 135.896C227.268 136.105 226.882 136.21 226.462 136.21H216.859ZM219.227 134.008H226.363C226.418 134.008 226.468 133.991 226.512 133.958C226.556 133.914 226.578 133.865 226.578 133.809V126.69C226.578 126.634 226.556 126.59 226.512 126.557C226.468 126.513 226.418 126.491 226.363 126.491H219.227C219.171 126.491 219.122 126.513 219.078 126.557C219.045 126.59 219.028 126.634 219.028 126.69V133.809C219.028 133.865 219.045 133.914 219.078 133.958C219.122 133.991 219.171 134.008 219.227 134.008ZM230.667 136.21V124.289H241.645V126.491H232.87V129.14H239.923V131.359H232.87V134.008H241.645V136.21H230.667ZM248.545 136.21V124.391H263.646C264.148 124.391 264.597 124.513 264.99 124.758C265.384 125.002 265.697 125.321 265.928 125.715C266.172 126.109 266.295 126.551 266.295 127.04V136.21H264.114V127.101C264.114 126.965 264.06 126.85 263.951 126.755C263.856 126.646 263.741 126.592 263.605 126.592H259.06C258.911 126.592 258.789 126.646 258.694 126.755C258.599 126.85 258.551 126.965 258.551 127.101V136.21H256.33V127.101C256.33 126.965 256.275 126.85 256.167 126.755C256.072 126.646 255.956 126.592 255.82 126.592H251.256C251.12 126.592 251.004 126.646 250.909 126.755C250.814 126.85 250.766 126.965 250.766 127.101V136.21H248.545ZM268.326 136.21V126.59C268.326 126.171 268.431 125.79 268.64 125.448C268.85 125.095 269.126 124.813 269.468 124.603C269.821 124.394 270.208 124.289 270.627 124.289H277.929C278.348 124.289 278.735 124.394 279.088 124.603C279.441 124.813 279.723 125.095 279.932 125.448C280.142 125.79 280.247 126.171 280.247 126.59V136.21H278.045V132.203H270.511V136.21H268.326ZM270.511 130.018H278.045V126.69C278.045 126.634 278.023 126.59 277.979 126.557C277.934 126.513 277.885 126.491 277.83 126.491H270.71C270.655 126.491 270.605 126.513 270.561 126.557C270.528 126.59 270.511 126.634 270.511 126.69V130.018ZM286.405 136.21V126.491H281.537V124.289H293.459V126.491H288.607V136.21H286.405ZM294.73 136.21V124.289H305.708V126.491H296.932V129.14H303.986V131.359H296.932V134.008H305.708V136.21H294.73ZM307.547 136.21V124.391H322.647C323.15 124.391 323.598 124.513 323.992 124.758C324.386 125.002 324.699 125.321 324.93 125.715C325.174 126.109 325.296 126.551 325.296 127.04V136.21H323.116V127.101C323.116 126.965 323.062 126.85 322.953 126.755C322.858 126.646 322.742 126.592 322.606 126.592H318.062C317.913 126.592 317.79 126.646 317.695 126.755C317.6 126.85 317.553 126.965 317.553 127.101V136.21H315.331V127.101C315.331 126.965 315.277 126.85 315.168 126.755C315.073 126.646 314.958 126.592 314.822 126.592H310.257C310.121 126.592 310.006 126.646 309.911 126.755C309.816 126.85 309.768 126.965 309.768 127.101V136.21H307.547ZM327.327 136.21V126.59C327.327 126.171 327.432 125.79 327.642 125.448C327.852 125.095 328.128 124.813 328.47 124.603C328.823 124.394 329.209 124.289 329.629 124.289H336.931C337.35 124.289 337.736 124.394 338.09 124.603C338.443 124.813 338.724 125.095 338.934 125.448C339.144 125.79 339.249 126.171 339.249 126.59V136.21H337.046V132.203H329.513V136.21H327.327ZM329.513 130.018H337.046V126.69C337.046 126.634 337.024 126.59 336.98 126.557C336.936 126.513 336.886 126.491 336.831 126.491H329.712C329.656 126.491 329.607 126.513 329.563 126.557C329.529 126.59 329.513 126.634 329.513 126.69V130.018ZM332.079 123.295L332.857 120.265H335.043L334.298 123.295H332.079ZM345.407 136.21V126.491H340.539V124.289H352.46V126.491H347.609V136.21H345.407ZM353.467 136.21V124.289H355.636V136.21H353.467ZM359.541 136.21C359.122 136.21 358.735 136.105 358.382 135.896C358.04 135.686 357.764 135.41 357.554 135.068C357.345 134.714 357.24 134.328 357.24 133.909V126.59C357.24 126.171 357.345 125.79 357.554 125.448C357.764 125.095 358.04 124.813 358.382 124.603C358.735 124.394 359.122 124.289 359.541 124.289H369.128V126.491H360.005C359.828 126.491 359.685 126.541 359.574 126.64C359.475 126.739 359.425 126.883 359.425 127.071V133.429C359.425 133.605 359.475 133.749 359.574 133.859C359.685 133.958 359.828 134.008 360.005 134.008H369.128V136.21H359.541ZM370.887 136.21V126.59C370.887 126.171 370.992 125.79 371.202 125.448C371.412 125.095 371.688 124.813 372.03 124.603C372.383 124.394 372.769 124.289 373.189 124.289H380.491C380.91 124.289 381.296 124.394 381.65 124.603C382.003 124.813 382.284 125.095 382.494 125.448C382.704 125.79 382.809 126.171 382.809 126.59V136.21H380.606V132.203H373.073V136.21H370.887ZM373.073 130.018H380.606V126.69C380.606 126.634 380.584 126.59 380.54 126.557C380.496 126.513 380.446 126.491 380.391 126.491H373.272C373.216 126.491 373.167 126.513 373.123 126.557C373.089 126.59 373.073 126.634 373.073 126.69V130.018ZM392.057 136.21C391.638 136.21 391.252 136.105 390.898 135.896C390.556 135.686 390.28 135.41 390.071 135.068C389.861 134.714 389.756 134.328 389.756 133.909V126.59C389.756 126.171 389.861 125.79 390.071 125.448C390.28 125.095 390.556 124.813 390.898 124.603C391.252 124.394 391.638 124.289 392.057 124.289H401.644V126.491H392.521C392.344 126.491 392.201 126.541 392.091 126.64C391.991 126.739 391.942 126.883 391.942 127.071V133.429C391.942 133.605 391.991 133.749 392.091 133.859C392.201 133.958 392.344 134.008 392.521 134.008H401.644V136.21H392.057ZM405.639 136.21C405.219 136.21 404.833 136.105 404.48 135.896C404.138 135.686 403.862 135.41 403.652 135.068C403.442 134.714 403.337 134.328 403.337 133.909V126.59C403.337 126.171 403.442 125.79 403.652 125.448C403.862 125.095 404.138 124.813 404.48 124.603C404.833 124.394 405.219 124.289 405.639 124.289H412.957C413.377 124.289 413.758 124.394 414.1 124.603C414.453 124.813 414.734 125.095 414.944 125.448C415.154 125.79 415.259 126.171 415.259 126.59V133.909C415.259 134.328 415.154 134.714 414.944 135.068C414.734 135.41 414.453 135.686 414.1 135.896C413.758 136.105 413.377 136.21 412.957 136.21H405.639ZM405.722 134.008H412.841C412.897 134.008 412.946 133.991 412.99 133.958C413.035 133.914 413.057 133.865 413.057 133.809V126.69C413.057 126.634 413.035 126.59 412.99 126.557C412.946 126.513 412.897 126.491 412.841 126.491H405.722C405.667 126.491 405.617 126.513 405.573 126.557C405.54 126.59 405.523 126.634 405.523 126.69V133.809C405.523 133.865 405.54 133.914 405.573 133.958C405.617 133.991 405.667 134.008 405.722 134.008ZM417.255 136.21V124.391H432.356C432.858 124.391 433.307 124.513 433.701 124.758C434.094 125.002 434.407 125.321 434.638 125.715C434.882 126.109 435.005 126.551 435.005 127.04V136.21H432.824V127.101C432.824 126.965 432.77 126.85 432.661 126.755C432.566 126.646 432.451 126.592 432.315 126.592H427.77C427.621 126.592 427.499 126.646 427.404 126.755C427.309 126.85 427.261 126.965 427.261 127.101V136.21H425.04V127.101C425.04 126.965 424.985 126.85 424.877 126.755C424.782 126.646 424.666 126.592 424.53 126.592H419.966C419.83 126.592 419.714 126.646 419.619 126.755C419.524 126.85 419.476 126.965 419.476 127.101V136.21H417.255ZM437.003 136.21V124.305H446.606C447.025 124.305 447.412 124.41 447.765 124.62C448.118 124.83 448.4 125.111 448.609 125.464C448.819 125.807 448.924 126.187 448.924 126.607V129.819C448.924 130.238 448.819 130.625 448.609 130.978C448.4 131.331 448.118 131.613 447.765 131.822C447.412 132.021 447.025 132.12 446.606 132.12L439.188 132.137V136.21H437.003ZM439.387 129.918H446.506C446.562 129.918 446.611 129.902 446.656 129.869C446.7 129.836 446.722 129.791 446.722 129.736V126.69C446.722 126.634 446.7 126.59 446.656 126.557C446.611 126.513 446.562 126.491 446.506 126.491H439.387C439.332 126.491 439.282 126.513 439.238 126.557C439.205 126.59 439.188 126.634 439.188 126.69V129.736C439.188 129.791 439.205 129.836 439.238 129.869C439.282 129.902 439.332 129.918 439.387 129.918ZM452.368 136.21C451.949 136.21 451.562 136.105 451.209 135.896C450.867 135.686 450.591 135.41 450.381 135.068C450.171 134.714 450.067 134.328 450.067 133.909V124.289H452.252V133.809C452.252 133.865 452.269 133.914 452.302 133.958C452.346 133.991 452.396 134.008 452.451 134.008H459.57C459.626 134.008 459.675 133.991 459.719 133.958C459.764 133.914 459.786 133.865 459.786 133.809V124.289H461.988V133.909C461.988 134.328 461.883 134.714 461.673 135.068C461.464 135.41 461.182 135.686 460.829 135.896C460.487 136.105 460.106 136.21 459.686 136.21H452.368ZM468.083 136.21V126.491H463.215V124.289H475.136V126.491H470.285V136.21H468.083ZM476.408 136.21V126.59C476.408 126.171 476.513 125.79 476.722 125.448C476.932 125.095 477.208 124.813 477.55 124.603C477.904 124.394 478.29 124.289 478.709 124.289H486.011C486.431 124.289 486.817 124.394 487.17 124.603C487.523 124.813 487.805 125.095 488.015 125.448C488.224 125.79 488.329 126.171 488.329 126.59V136.21H486.127V132.203H478.593V136.21H476.408ZM478.593 130.018H486.127V126.69C486.127 126.634 486.105 126.59 486.061 126.557C486.017 126.513 485.967 126.491 485.912 126.491H478.792C478.737 126.491 478.687 126.513 478.643 126.557C478.61 126.59 478.593 126.634 478.593 126.69V130.018ZM492.517 136.21C492.098 136.21 491.711 136.105 491.358 135.896C491.016 135.686 490.74 135.41 490.53 135.068C490.321 134.714 490.216 134.328 490.216 133.909V126.59C490.216 126.171 490.321 125.79 490.53 125.448C490.74 125.095 491.016 124.813 491.358 124.603C491.711 124.394 492.098 124.289 492.517 124.289H502.104V126.491H492.981C492.804 126.491 492.661 126.541 492.55 126.64C492.451 126.739 492.401 126.883 492.401 127.071V133.429C492.401 133.605 492.451 133.749 492.55 133.859C492.661 133.958 492.804 134.008 492.981 134.008H502.104V136.21H492.517ZM503.598 136.21V124.289H505.767V136.21H503.598ZM509.64 136.21C509.22 136.21 508.834 136.105 508.481 135.896C508.138 135.686 507.862 135.41 507.653 135.068C507.443 134.714 507.338 134.328 507.338 133.909V126.59C507.338 126.171 507.443 125.79 507.653 125.448C507.862 125.095 508.138 124.813 508.481 124.603C508.834 124.394 509.22 124.289 509.64 124.289H516.958C517.377 124.289 517.758 124.394 518.1 124.603C518.454 124.813 518.735 125.095 518.945 125.448C519.155 125.79 519.259 126.171 519.259 126.59V133.909C519.259 134.328 519.155 134.714 518.945 135.068C518.735 135.41 518.454 135.686 518.1 135.896C517.758 136.105 517.377 136.21 516.958 136.21H509.64ZM509.722 134.008H516.842C516.897 134.008 516.947 133.991 516.991 133.958C517.035 133.914 517.057 133.865 517.057 133.809V126.69C517.057 126.634 517.035 126.59 516.991 126.557C516.947 126.513 516.897 126.491 516.842 126.491H509.722C509.667 126.491 509.618 126.513 509.573 126.557C509.54 126.59 509.524 126.634 509.524 126.69V133.809C509.524 133.865 509.54 133.914 509.573 133.958C509.618 133.991 509.667 134.008 509.722 134.008ZM521.256 136.21V124.391H530.63C531.119 124.391 531.561 124.513 531.955 124.758C532.362 125.002 532.681 125.321 532.912 125.715C533.157 126.109 533.279 126.551 533.279 127.04V136.21H531.078V127.101C531.078 126.965 531.024 126.85 530.915 126.755C530.82 126.646 530.705 126.592 530.569 126.592H523.966C523.83 126.592 523.708 126.646 523.599 126.755C523.504 126.85 523.457 126.965 523.457 127.101V136.21H521.256ZM535.305 136.21V126.59C535.305 126.171 535.41 125.79 535.62 125.448C535.829 125.095 536.105 124.813 536.447 124.603C536.801 124.394 537.187 124.289 537.606 124.289H544.908C545.328 124.289 545.714 124.394 546.067 124.603C546.42 124.813 546.702 125.095 546.912 125.448C547.121 125.79 547.226 126.171 547.226 126.59V136.21H545.024V132.203H537.491V136.21H535.305ZM537.491 130.018H545.024V126.69C545.024 126.634 545.002 126.59 544.958 126.557C544.914 126.513 544.864 126.491 544.809 126.491H537.689C537.634 126.491 537.584 126.513 537.54 126.557C537.507 126.59 537.491 126.634 537.491 126.69V130.018ZM549.129 136.21V124.272H551.315V134.008H561.051V136.21H549.129Z" fill="#00B1E2"/>
<path d="M81.2648 96.8599V41.7622H87.4547V90.67H136.286V96.8599H81.2648ZM140.894 96.8599V51.0088C140.894 49.3276 141.301 47.7993 142.117 46.4237C142.932 44.9972 144.027 43.8764 145.403 43.0613C146.829 42.2462 148.383 41.8386 150.064 41.8386H186.745C188.426 41.8386 189.954 42.2462 191.33 43.0613C192.756 43.8764 193.877 44.9972 194.692 46.4237C195.508 47.7993 195.915 49.3276 195.915 51.0088V96.8599H189.725V76.7618H147.084V96.8599H140.894ZM147.084 70.5719H189.725V51.0088C189.725 50.1937 189.42 49.5059 188.808 48.9455C188.248 48.3342 187.56 48.0285 186.745 48.0285H150.064C149.249 48.0285 148.536 48.3342 147.924 48.9455C147.364 49.5059 147.084 50.1937 147.084 51.0088V70.5719ZM433.806 96.8599V51.0088C433.806 49.3276 434.214 47.7993 435.029 46.4237C435.844 44.9972 436.939 43.8764 438.315 43.0613C439.741 42.2462 441.295 41.8386 442.976 41.8386H479.657C481.338 41.8386 482.867 42.2462 484.242 43.0613C485.669 43.8764 486.79 44.9972 487.605 46.4237C488.42 47.7993 488.827 49.3276 488.827 51.0088V96.8599H482.637V76.7618H439.996V96.8599H433.806ZM439.996 70.5719H482.637V51.0088C482.637 50.1937 482.332 49.5059 481.72 48.9455C481.16 48.3342 480.472 48.0285 479.657 48.0285H442.976C442.161 48.0285 441.448 48.3342 440.837 48.9455C440.276 49.5059 439.996 50.1937 439.996 51.0088V70.5719ZM506.704 96.8599C505.023 96.8599 503.469 96.4523 502.043 95.6372C500.667 94.822 499.572 93.7267 498.757 92.3512C497.942 90.9247 497.534 89.3709 497.534 87.6897V51.0088C497.534 49.3276 497.942 47.7993 498.757 46.4237C499.572 44.9972 500.667 43.8764 502.043 43.0613C503.469 42.2462 505.023 41.8386 506.704 41.8386H552.403V48.0285H506.704C505.889 48.0285 505.176 48.3342 504.565 48.9455C504.004 49.5059 503.724 50.1937 503.724 51.0088V87.6897C503.724 88.5048 504.004 89.218 504.565 89.8294C505.176 90.3898 505.889 90.67 506.704 90.67H552.403V96.8599H506.704Z" fill="#00B1E2"/>
<path d="M131 160.515C131 160.515 191.033 174.724 216.081 115.228C241.129 55.7325 247.173 17 263.877 17.0001C280.581 17.0001 289.233 74.4967 306.682 74.4967C318.821 74.4967 330.832 36.81 342.374 39.5916C354.789 42.5834 365.895 131.061 384.791 115.228C401.861 100.925 421 27.6241 421 27.6241" stroke="url(#paint2_linear_15_23)" stroke-width="1.27364"/>
<path d="M218 117.732C218 116.076 216.657 114.732 215 114.732C213.343 114.732 212 116.076 212 117.732C212 119.389 213.343 120.732 215 120.732C216.657 120.732 218 119.389 218 117.732Z" fill="#04CB00"/>
<circle cx="3" cy="3" r="3" transform="matrix(1 0 0 -1 261.482 20.0956)" fill="#04CB00"/>
<circle cx="3" cy="3" r="3" transform="matrix(1 0 0 -1 360.758 93.9811)" fill="#04CB00"/>
<defs>
<linearGradient id="paint0_linear_15_23" x1="61.1348" y1="111.115" x2="560.402" y2="112.369" gradientUnits="userSpaceOnUse">
<stop stop-color="#00B1E2" stop-opacity="0"/>
<stop offset="0.520833" stop-color="#00B1E2"/>
<stop offset="1" stop-color="white" stop-opacity="0"/>
</linearGradient>
<linearGradient id="paint1_linear_15_23" x1="222.114" y1="0.28656" x2="222.114" y2="160.159" gradientUnits="userSpaceOnUse">
<stop offset="0.0104167" stop-color="#00B1E2" stop-opacity="0"/>
<stop offset="0.489583" stop-color="#00B1E2"/>
<stop offset="0.9999" stop-color="#00B1E2" stop-opacity="0.0102041"/>
<stop offset="1" stop-opacity="0"/>
</linearGradient>
<linearGradient id="paint2_linear_15_23" x1="130.809" y1="17.1526" x2="427.725" y2="17.1526" gradientUnits="userSpaceOnUse">
<stop stop-color="#00B1E2" stop-opacity="0"/>
<stop offset="0.25" stop-color="#00B1E2"/>
<stop offset="0.869792" stop-color="#00B1E2"/>
<stop offset="1" stop-color="white" stop-opacity="0"/>
</linearGradient>
</defs>
</svg>
